<mxfile host="app.diagrams.net" modified="2023-11-10T10:44:29.276Z" agent="Mozilla/5.0 (Windows NT 10.0; Win64; x64) AppleWebKit/537.36 (KHTML, like Gecko) Chrome/119.0.0.0 Safari/537.36 Edg/119.0.0.0" etag="o2ugtmVoy9llWASdE_69" version="22.1.0" type="github">
  <diagram id="C5RBs43oDa-KdzZeNtuy" name="Page-1">
    <mxGraphModel dx="1026" dy="472" grid="1" gridSize="10" guides="1" tooltips="1" connect="1" arrows="1" fold="1" page="1" pageScale="1" pageWidth="827" pageHeight="1169" math="0" shadow="0">
      <root>
        <mxCell id="WIyWlLk6GJQsqaUBKTNV-0" />
        <mxCell id="WIyWlLk6GJQsqaUBKTNV-1" parent="WIyWlLk6GJQsqaUBKTNV-0" />
        <mxCell id="j7ybLudrItDJHJF2ztr_-8" value="" style="edgeStyle=orthogonalEdgeStyle;rounded=0;orthogonalLoop=1;jettySize=auto;html=1;" edge="1" parent="WIyWlLk6GJQsqaUBKTNV-1" source="WIyWlLk6GJQsqaUBKTNV-3" target="j7ybLudrItDJHJF2ztr_-7">
          <mxGeometry relative="1" as="geometry" />
        </mxCell>
        <mxCell id="WIyWlLk6GJQsqaUBKTNV-3" value="login" style="rounded=1;whiteSpace=wrap;html=1;fontSize=12;glass=0;strokeWidth=1;shadow=0;" parent="WIyWlLk6GJQsqaUBKTNV-1" vertex="1">
          <mxGeometry x="140" y="86" width="80" height="34" as="geometry" />
        </mxCell>
        <mxCell id="j7ybLudrItDJHJF2ztr_-1" value="" style="edgeStyle=orthogonalEdgeStyle;rounded=0;orthogonalLoop=1;jettySize=auto;html=1;" edge="1" parent="WIyWlLk6GJQsqaUBKTNV-1" source="j7ybLudrItDJHJF2ztr_-0" target="WIyWlLk6GJQsqaUBKTNV-3">
          <mxGeometry relative="1" as="geometry" />
        </mxCell>
        <mxCell id="j7ybLudrItDJHJF2ztr_-0" value="start" style="strokeWidth=2;html=1;shape=mxgraph.flowchart.start_1;whiteSpace=wrap;" vertex="1" parent="WIyWlLk6GJQsqaUBKTNV-1">
          <mxGeometry x="145" y="20" width="70" height="40" as="geometry" />
        </mxCell>
        <mxCell id="j7ybLudrItDJHJF2ztr_-6" style="edgeStyle=orthogonalEdgeStyle;rounded=0;orthogonalLoop=1;jettySize=auto;html=1;" edge="1" parent="WIyWlLk6GJQsqaUBKTNV-1" source="j7ybLudrItDJHJF2ztr_-2" target="WIyWlLk6GJQsqaUBKTNV-3">
          <mxGeometry relative="1" as="geometry" />
        </mxCell>
        <mxCell id="j7ybLudrItDJHJF2ztr_-75" style="edgeStyle=orthogonalEdgeStyle;rounded=0;orthogonalLoop=1;jettySize=auto;html=1;entryX=0;entryY=0.5;entryDx=0;entryDy=0;" edge="1" parent="WIyWlLk6GJQsqaUBKTNV-1" source="j7ybLudrItDJHJF2ztr_-2" target="j7ybLudrItDJHJF2ztr_-9">
          <mxGeometry relative="1" as="geometry">
            <Array as="points">
              <mxPoint x="290" y="40" />
            </Array>
          </mxGeometry>
        </mxCell>
        <mxCell id="j7ybLudrItDJHJF2ztr_-2" value="signup" style="rounded=1;whiteSpace=wrap;html=1;fontSize=12;glass=0;strokeWidth=1;shadow=0;" vertex="1" parent="WIyWlLk6GJQsqaUBKTNV-1">
          <mxGeometry x="250" y="86" width="80" height="34" as="geometry" />
        </mxCell>
        <mxCell id="j7ybLudrItDJHJF2ztr_-17" style="edgeStyle=orthogonalEdgeStyle;rounded=0;orthogonalLoop=1;jettySize=auto;html=1;" edge="1" parent="WIyWlLk6GJQsqaUBKTNV-1" source="j7ybLudrItDJHJF2ztr_-7" target="j7ybLudrItDJHJF2ztr_-15">
          <mxGeometry relative="1" as="geometry" />
        </mxCell>
        <mxCell id="j7ybLudrItDJHJF2ztr_-7" value="username &lt;br&gt;&amp;amp;&amp;amp;&amp;nbsp;&lt;br&gt;password" style="shape=parallelogram;html=1;strokeWidth=2;perimeter=parallelogramPerimeter;whiteSpace=wrap;rounded=1;arcSize=12;size=0.23;" vertex="1" parent="WIyWlLk6GJQsqaUBKTNV-1">
          <mxGeometry x="115" y="150" width="130" height="60" as="geometry" />
        </mxCell>
        <mxCell id="j7ybLudrItDJHJF2ztr_-9" value="fullname &amp;amp;&amp;amp; &lt;br&gt;username &amp;amp;&amp;amp; &lt;br&gt;password &amp;amp;&amp;amp;&lt;br&gt;&amp;nbsp;konfirmasi password" style="shape=parallelogram;perimeter=parallelogramPerimeter;whiteSpace=wrap;html=1;fixedSize=1;rounded=1;glass=0;strokeWidth=1;shadow=0;" vertex="1" parent="WIyWlLk6GJQsqaUBKTNV-1">
          <mxGeometry x="330" y="5" width="160" height="70" as="geometry" />
        </mxCell>
        <mxCell id="j7ybLudrItDJHJF2ztr_-28" style="edgeStyle=orthogonalEdgeStyle;rounded=0;orthogonalLoop=1;jettySize=auto;html=1;" edge="1" parent="WIyWlLk6GJQsqaUBKTNV-1" source="j7ybLudrItDJHJF2ztr_-15" target="j7ybLudrItDJHJF2ztr_-24">
          <mxGeometry relative="1" as="geometry" />
        </mxCell>
        <mxCell id="j7ybLudrItDJHJF2ztr_-30" value="no" style="edgeLabel;html=1;align=center;verticalAlign=middle;resizable=0;points=[];" vertex="1" connectable="0" parent="j7ybLudrItDJHJF2ztr_-28">
          <mxGeometry x="-0.2222" y="1" relative="1" as="geometry">
            <mxPoint as="offset" />
          </mxGeometry>
        </mxCell>
        <mxCell id="j7ybLudrItDJHJF2ztr_-62" value="" style="edgeStyle=orthogonalEdgeStyle;rounded=0;orthogonalLoop=1;jettySize=auto;html=1;" edge="1" parent="WIyWlLk6GJQsqaUBKTNV-1" source="j7ybLudrItDJHJF2ztr_-15" target="j7ybLudrItDJHJF2ztr_-61">
          <mxGeometry relative="1" as="geometry" />
        </mxCell>
        <mxCell id="j7ybLudrItDJHJF2ztr_-63" value="yes" style="edgeLabel;html=1;align=center;verticalAlign=middle;resizable=0;points=[];" vertex="1" connectable="0" parent="j7ybLudrItDJHJF2ztr_-62">
          <mxGeometry x="-0.3333" y="3" relative="1" as="geometry">
            <mxPoint as="offset" />
          </mxGeometry>
        </mxCell>
        <mxCell id="j7ybLudrItDJHJF2ztr_-15" value="if admin &lt;br&gt;== true" style="rhombus;whiteSpace=wrap;html=1;rounded=1;glass=0;strokeWidth=1;shadow=0;" vertex="1" parent="WIyWlLk6GJQsqaUBKTNV-1">
          <mxGeometry x="140" y="230" width="80" height="80" as="geometry" />
        </mxCell>
        <mxCell id="j7ybLudrItDJHJF2ztr_-24" value="home" style="whiteSpace=wrap;html=1;rounded=1;glass=0;strokeWidth=1;shadow=0;" vertex="1" parent="WIyWlLk6GJQsqaUBKTNV-1">
          <mxGeometry x="137" y="350" width="85" height="30" as="geometry" />
        </mxCell>
        <mxCell id="j7ybLudrItDJHJF2ztr_-70" value="" style="edgeStyle=orthogonalEdgeStyle;rounded=0;orthogonalLoop=1;jettySize=auto;html=1;" edge="1" parent="WIyWlLk6GJQsqaUBKTNV-1" source="j7ybLudrItDJHJF2ztr_-33" target="j7ybLudrItDJHJF2ztr_-69">
          <mxGeometry relative="1" as="geometry" />
        </mxCell>
        <mxCell id="j7ybLudrItDJHJF2ztr_-33" value="karya" style="rounded=1;whiteSpace=wrap;html=1;fontSize=12;glass=0;strokeWidth=1;shadow=0;" vertex="1" parent="WIyWlLk6GJQsqaUBKTNV-1">
          <mxGeometry x="400" y="255" width="70" height="30" as="geometry" />
        </mxCell>
        <mxCell id="j7ybLudrItDJHJF2ztr_-42" value="" style="edgeStyle=orthogonalEdgeStyle;rounded=0;orthogonalLoop=1;jettySize=auto;html=1;" edge="1" parent="WIyWlLk6GJQsqaUBKTNV-1" source="j7ybLudrItDJHJF2ztr_-35" target="j7ybLudrItDJHJF2ztr_-41">
          <mxGeometry relative="1" as="geometry" />
        </mxCell>
        <mxCell id="j7ybLudrItDJHJF2ztr_-35" value="user" style="whiteSpace=wrap;html=1;rounded=1;glass=0;strokeWidth=1;shadow=0;" vertex="1" parent="WIyWlLk6GJQsqaUBKTNV-1">
          <mxGeometry x="400" y="185" width="70" height="30" as="geometry" />
        </mxCell>
        <mxCell id="j7ybLudrItDJHJF2ztr_-44" value="" style="edgeStyle=orthogonalEdgeStyle;rounded=0;orthogonalLoop=1;jettySize=auto;html=1;" edge="1" parent="WIyWlLk6GJQsqaUBKTNV-1" source="j7ybLudrItDJHJF2ztr_-41" target="j7ybLudrItDJHJF2ztr_-43">
          <mxGeometry relative="1" as="geometry">
            <mxPoint x="635" y="200" as="targetPoint" />
          </mxGeometry>
        </mxCell>
        <mxCell id="j7ybLudrItDJHJF2ztr_-41" value="edit user" style="whiteSpace=wrap;html=1;rounded=1;glass=0;strokeWidth=1;shadow=0;" vertex="1" parent="WIyWlLk6GJQsqaUBKTNV-1">
          <mxGeometry x="500" y="187.5" width="70" height="25" as="geometry" />
        </mxCell>
        <mxCell id="j7ybLudrItDJHJF2ztr_-43" value="username&amp;nbsp;" style="shape=parallelogram;perimeter=parallelogramPerimeter;whiteSpace=wrap;html=1;fixedSize=1;rounded=1;glass=0;strokeWidth=1;shadow=0;" vertex="1" parent="WIyWlLk6GJQsqaUBKTNV-1">
          <mxGeometry x="600" y="170" width="120" height="60" as="geometry" />
        </mxCell>
        <mxCell id="j7ybLudrItDJHJF2ztr_-80" style="edgeStyle=orthogonalEdgeStyle;rounded=0;orthogonalLoop=1;jettySize=auto;html=1;" edge="1" parent="WIyWlLk6GJQsqaUBKTNV-1" source="j7ybLudrItDJHJF2ztr_-58" target="j7ybLudrItDJHJF2ztr_-79">
          <mxGeometry relative="1" as="geometry" />
        </mxCell>
        <mxCell id="j7ybLudrItDJHJF2ztr_-58" value="genre" style="rounded=1;whiteSpace=wrap;html=1;absoluteArcSize=1;arcSize=14;strokeWidth=2;" vertex="1" parent="WIyWlLk6GJQsqaUBKTNV-1">
          <mxGeometry x="400" y="315" width="70" height="30" as="geometry" />
        </mxCell>
        <mxCell id="j7ybLudrItDJHJF2ztr_-64" style="edgeStyle=orthogonalEdgeStyle;rounded=0;orthogonalLoop=1;jettySize=auto;html=1;entryX=0;entryY=0.5;entryDx=0;entryDy=0;" edge="1" parent="WIyWlLk6GJQsqaUBKTNV-1" source="j7ybLudrItDJHJF2ztr_-61" target="j7ybLudrItDJHJF2ztr_-35">
          <mxGeometry relative="1" as="geometry" />
        </mxCell>
        <mxCell id="j7ybLudrItDJHJF2ztr_-65" style="edgeStyle=orthogonalEdgeStyle;rounded=0;orthogonalLoop=1;jettySize=auto;html=1;entryX=0;entryY=0.5;entryDx=0;entryDy=0;" edge="1" parent="WIyWlLk6GJQsqaUBKTNV-1" source="j7ybLudrItDJHJF2ztr_-61" target="j7ybLudrItDJHJF2ztr_-33">
          <mxGeometry relative="1" as="geometry" />
        </mxCell>
        <mxCell id="j7ybLudrItDJHJF2ztr_-66" style="edgeStyle=orthogonalEdgeStyle;rounded=0;orthogonalLoop=1;jettySize=auto;html=1;entryX=0;entryY=0.5;entryDx=0;entryDy=0;" edge="1" parent="WIyWlLk6GJQsqaUBKTNV-1" source="j7ybLudrItDJHJF2ztr_-61" target="j7ybLudrItDJHJF2ztr_-58">
          <mxGeometry relative="1" as="geometry" />
        </mxCell>
        <mxCell id="j7ybLudrItDJHJF2ztr_-61" value="home admin" style="whiteSpace=wrap;html=1;rounded=1;glass=0;strokeWidth=1;shadow=0;" vertex="1" parent="WIyWlLk6GJQsqaUBKTNV-1">
          <mxGeometry x="260" y="255" width="80" height="30" as="geometry" />
        </mxCell>
        <mxCell id="j7ybLudrItDJHJF2ztr_-72" value="" style="edgeStyle=orthogonalEdgeStyle;rounded=0;orthogonalLoop=1;jettySize=auto;html=1;" edge="1" parent="WIyWlLk6GJQsqaUBKTNV-1" source="j7ybLudrItDJHJF2ztr_-69" target="j7ybLudrItDJHJF2ztr_-71">
          <mxGeometry relative="1" as="geometry" />
        </mxCell>
        <mxCell id="j7ybLudrItDJHJF2ztr_-73" value="yes" style="edgeLabel;html=1;align=center;verticalAlign=middle;resizable=0;points=[];" vertex="1" connectable="0" parent="j7ybLudrItDJHJF2ztr_-72">
          <mxGeometry x="-0.2937" y="-1" relative="1" as="geometry">
            <mxPoint as="offset" />
          </mxGeometry>
        </mxCell>
        <mxCell id="j7ybLudrItDJHJF2ztr_-69" value="pilih karya" style="rhombus;whiteSpace=wrap;html=1;rounded=1;glass=0;strokeWidth=1;shadow=0;" vertex="1" parent="WIyWlLk6GJQsqaUBKTNV-1">
          <mxGeometry x="500" y="240" width="75" height="60" as="geometry" />
        </mxCell>
        <mxCell id="j7ybLudrItDJHJF2ztr_-71" value="edit karya" style="whiteSpace=wrap;html=1;rounded=1;glass=0;strokeWidth=1;shadow=0;" vertex="1" parent="WIyWlLk6GJQsqaUBKTNV-1">
          <mxGeometry x="621.25" y="255" width="77.5" height="30" as="geometry" />
        </mxCell>
        <mxCell id="j7ybLudrItDJHJF2ztr_-79" value="tambah genre" style="rounded=1;whiteSpace=wrap;html=1;absoluteArcSize=1;arcSize=14;strokeWidth=2;" vertex="1" parent="WIyWlLk6GJQsqaUBKTNV-1">
          <mxGeometry x="500" y="310" width="88.75" height="40" as="geometry" />
        </mxCell>
      </root>
    </mxGraphModel>
  </diagram>
</mxfile>
